<svg xmlns="http://www.w3.org/2000/svg" width="329" height="500" viewBox="0 0 329 500" fill="none">
    <g>
        <rect xmlns="http://www.w3.org/2000/svg" x="0" y="0" width="329" height="500" fill="url(#paint0)"
              fill-opacity="0.5"/>
    </g>
    <g xmlns="http://www.w3.org/2000/svg" stroke="#FFF">
        <path xmlns="http://www.w3.org/2000/svg" d="M96.6469 15.3725C94.9827 12.507 91.3038 11.5239 88.5011 13.2918C65.6423 27.7113 46.6732 47.576 33.3177 71.1436C18.975 96.4533 11.6227 125.123 12.0149 154.211C12.4072 183.3 20.5298 211.761 35.5498 236.674C49.536 259.873 69.0338 279.219 92.2732 293.017C95.1225 294.709 98.7735 293.627 100.36 290.718L118.169 258.057C119.755 255.148 118.673 251.517 115.851 249.781C100.261 240.191 87.1646 226.996 77.6849 211.272C67.1709 193.832 61.485 173.91 61.2104 153.548C60.9359 133.186 66.0825 113.117 76.1224 95.4005C85.1746 79.4266 97.911 65.8829 113.236 55.8765C116.011 54.0648 116.994 50.4059 115.33 47.5405L96.6469 15.3725Z"
              stroke="#FFF" fill-opacity="0.5"/>
    </g>
    <path  stroke="#FFF" id="3" fill-opacity="0.5" class="recharts-sector" d="M 85.05698257603783,27.26668291890232
    A6,6,0,0,0,76.66567180472347,25.1882025234176
    A164,164,0,0,0,80.66766692155959,305.25056553410275
    A6,6,0,0,0,88.99616205981316,302.93316484641883
  L107.21507237716378,269.18541353186407
      A6,6,0,0,0,105.04672250402422,261.20488823861933
      A113.685,113.685,0,0,1,102.29331155029486,68.51930129303082
      A6,6,0,0,0,104.2327446987065,60.48007718921927Z"></path>

    <defs>
        <!--                        gradientTransform="translate(47.5141 152.514) rotate(90) scale(163.486)"-->
<!--        -78.18790340423584-->
<!--        -159.0793924331665-->
        <radialGradient xmlns="http://www.w3.org/2000/svg" id="paint0" cx="0" cy="0" r="1" gradientUnits="userSpaceOnUse" gradientTransform="translate(163.486 164.514) rotate(90) scale(163.486)">
            <stop offset="0.71875" stop-color="#4D4D4D"/>
            <stop offset="1" stop-color="#382900"/>
        </radialGradient>    </defs>
</svg>
