<svg xmlns="http://www.w3.org/2000/svg" width="329" height="500" viewBox="0 0 329 500" fill="none">
    <g>
        <rect xmlns="http://www.w3.org/2000/svg" x="0" y="0" width="329" height="500" fill="url(#paint0)"
              fill-opacity="0.5"/>
    </g>
    <g xmlns="http://www.w3.org/2000/svg" stroke="#FFF">
        <path stroke="red" xmlns="http://www.w3.org/2000/svg" d="M84.6469 3.37246C82.9827 0.506992 79.3038 -0.476114 76.5011 1.29183C53.6423 15.7113 34.6732 35.576 21.3177 59.1436C6.97495 84.4533 -0.377343 113.123 0.0149087 142.211C0.40716 171.3 8.52984 199.761 23.5498 224.674C37.536 247.873 57.0338 267.219 80.2732 281.017C83.1225 282.709 86.7735 281.627 88.3599 278.718L106.169 246.057C107.755 243.148 106.673 239.517 103.851 237.781C88.2615 228.191 75.1646 214.996 65.6849 199.272C55.1709 181.832 49.485 161.91 49.2104 141.548C48.9359 121.186 54.0825 101.117 64.1224 83.4005C73.1746 67.4266 85.911 53.8829 101.236 43.8765C104.011 42.0648 104.994 38.4059 103.33 35.5405L84.6469 3.37246Z"  fill-opacity="0.5"/>
    </g>
    <path  stroke="red"  cx="164" cy="164" id="3" fill-opacity="0.5" class="recharts-sector" d="M 85.05698257603783,27.26668291890232
    A6,6,0,0,0,76.66567180472347,25.1882025234176
    A164,164,0,0,0,80.66766692155959,305.25056553410275
    A6,6,0,0,0,88.99616205981316,302.93316484641883
  L107.21507237716378,269.18541353186407
      A6,6,0,0,0,105.04672250402422,261.20488823861933
      A113.685,113.685,0,0,1,102.29331155029486,68.51930129303082
      A6,6,0,0,0,104.2327446987065,60.48007718921927Z"></path>

    <defs>
        <!--                        gradientTransform="translate(47.5141 152.514) rotate(90) scale(163.486)"-->
<!--        -78.18790340423584-->
<!--        -159.0793924331665-->
        <radialGradient xmlns="http://www.w3.org/2000/svg" id="paint0" cx="0" cy="0" r="1" gradientUnits="userSpaceOnUse" gradientTransform="translate(163.486 140.514) rotate(90) scale(163.486)">
            <stop offset="0.828125" stop-color="#BFBFBF" stop-opacity="0.69"/>
            <stop offset="0.921875" stop-color="#E4E4E4" stop-opacity="0.2"/>
        </radialGradient>   </defs>
</svg>
